PathFileType	4	(X/Y/Z)	 2.5Hzhigh3min.trc
DataRate	CameraRate	NumFrames	NumMarkers	Units	OrigDataRate	OrigDataStartFrame	OrigNumFrames
200	200	10	35	m	200	501	1000
Frame#	Time	C7			LSH			RSH			MAN			RASI			LASI			HIPR			HIPL			RPSI			LPSI			COX			RTHI1			RTHI2			RTHI3			RTHI4			RSHA1			RSHA2			RSHA3			RSHA4			RHEEL			RMET5			RMET1			RTOE			LTHI1			LTHI2			LTHI3			LTHI4			LSHA1			LSHA2			LSHA3			LSHA4			LHEEL			LMET5			LMET1			LTOE			
		X1	Y1	Z1	X2	Y2	Z2	X3	Y3	Z3	X4	Y4	Z4	X5	Y5	Z5	X6	Y6	Z6	X7	Y7	Z7	X8	Y8	Z8	X9	Y9	Z9	X10	Y10	Z10	X11	Y11	Z11	X12	Y12	Z12	X13	Y13	Z13	X14	Y14	Z14	X15	Y15	Z15	X16	Y16	Z16	X17	Y17	Z17	X18	Y18	Z18	X19	Y19	Z19	X20	Y20	Z20	X21	Y21	Z21	X22	Y22	Z22	X23	Y23	Z23	X24	Y24	Z24	X25	Y25	Z25	X26	Y26	Z26	X27	Y27	Z27	X28	Y28	Z28	X29	Y29	Z29	X30	Y30	Z30	X31	Y31	Z31	X32	Y32	Z32	X33	Y33	Z33	X34	Y34	Z34	X35	Y35	Z35	
501	2.5050	-0.253285	1.482352	-0.542390	-0.187341	1.491605	-0.711192	-0.193198	1.472160	-0.380547	-0.121903	1.445825	-0.541812	-0.088586	1.051133	-0.432669	-0.093453	1.040070	-0.656500	-0.149232	1.102346	-0.403708	-0.144998	1.109843	-0.680381	-0.243024	1.085368	-0.489518	-0.244957	1.084750	-0.590410	-0.246054	1.093954	-0.538037	-0.175647	0.848681	-0.361805	-0.152353	0.793962	-0.359962	-0.091601	0.817668	-0.364139	-0.108882	0.876309	-0.367361	-0.197523	0.447277	-0.355357	-0.211246	0.406381	-0.359828	-0.151945	0.394487	-0.366218	-0.142905	0.433913	-0.365744	-0.272074	0.177591	-0.414646	-0.151264	0.074591	-0.360743	-0.121995	0.074366	-0.429554	-0.100952	0.062030	-0.417684	-0.196285	0.852005	-0.711322	-0.178066	0.793278	-0.715670	-0.115509	0.807651	-0.722301	-0.124825	0.866972	-0.719042	-0.241155	0.426016	-0.702564	-0.250894	0.386357	-0.699735	-0.191093	0.376923	-0.717226	-0.189215	0.420924	-0.717404	-0.298864	0.171332	-0.660548	-0.185370	0.082964	-0.730357	-0.142372	0.076377	-0.673179	-0.124613	0.065277	-0.680699	
502	2.5100	-0.253252	1.481005	-0.542496	-0.187197	1.489928	-0.711550	-0.193314	1.470389	-0.380356	-0.121747	1.444214	-0.541854	-0.088830	1.049784	-0.432670	-0.093531	1.038721	-0.656522	-0.149462	1.100911	-0.403715	-0.145115	1.108311	-0.680478	-0.243333	1.083735	-0.489593	-0.245193	1.083108	-0.590492	-0.246294	1.092334	-0.538146	-0.175035	0.847162	-0.361701	-0.151582	0.792507	-0.359938	-0.090931	0.816364	-0.364418	-0.108364	0.874959	-0.367555	-0.197102	0.446209	-0.355612	-0.211049	0.405401	-0.360112	-0.151818	0.393133	-0.366502	-0.142568	0.432491	-0.366062	-0.273329	0.176771	-0.414791	-0.152542	0.073602	-0.361545	-0.123493	0.073335	-0.430476	-0.102468	0.060900	-0.418700	-0.194968	0.850563	-0.712198	-0.176405	0.791921	-0.716331	-0.113817	0.806578	-0.721950	-0.123449	0.865856	-0.718797	-0.240906	0.424929	-0.702393	-0.250736	0.385302	-0.699527	-0.191091	0.375716	-0.717456	-0.189090	0.419704	-0.717618	-0.299315	0.170220	-0.660888	-0.185297	0.082170	-0.730425	-0.142240	0.075716	-0.673234	-0.124391	0.064429	-0.680646	
503	2.5150	-0.253204	1.479411	-0.542587	-0.186985	1.487999	-0.711853	-0.193336	1.468366	-0.380198	-0.121572	1.442341	-0.541893	-0.089102	1.048195	-0.432670	-0.093617	1.037169	-0.656526	-0.149706	1.099222	-0.403729	-0.145241	1.106539	-0.680581	-0.243659	1.081853	-0.489674	-0.245452	1.081232	-0.590572	-0.246551	1.090478	-0.538250	-0.174308	0.845396	-0.361601	-0.150709	0.790804	-0.359928	-0.090158	0.814797	-0.364730	-0.107735	0.873355	-0.367768	-0.196657	0.444910	-0.355873	-0.210842	0.404217	-0.360391	-0.151689	0.391544	-0.366807	-0.142218	0.430834	-0.366412	-0.274667	0.175840	-0.414885	-0.153990	0.072286	-0.362424	-0.125199	0.071989	-0.431456	-0.104200	0.059420	-0.419792	-0.193507	0.848983	-0.713124	-0.174634	0.790406	-0.716986	-0.112018	0.805302	-0.721553	-0.121931	0.864544	-0.718557	-0.240590	0.423583	-0.702289	-0.250503	0.383988	-0.699383	-0.190988	0.374249	-0.717649	-0.188873	0.418237	-0.717816	-0.299701	0.168967	-0.661288	-0.185266	0.080903	-0.730334	-0.142182	0.074640	-0.673097	-0.124256	0.063116	-0.680362	
504	2.5200	-0.253139	1.477571	-0.542665	-0.186709	1.485820	-0.712102	-0.193295	1.466108	-0.380062	-0.121385	1.440213	-0.541928	-0.089398	1.046371	-0.432670	-0.093716	1.035412	-0.656511	-0.149981	1.097289	-0.403749	-0.145380	1.104536	-0.680689	-0.243999	1.079720	-0.489763	-0.245733	1.079127	-0.590660	-0.246826	1.088387	-0.538348	-0.173490	0.843397	-0.361502	-0.149749	0.788862	-0.359931	-0.089293	0.812987	-0.365066	-0.107007	0.871502	-0.368002	-0.196185	0.443360	-0.356138	-0.210618	0.402803	-0.360679	-0.151548	0.389720	-0.367143	-0.141849	0.428932	-0.366793	-0.276087	0.174794	-0.414945	-0.155601	0.070662	-0.363366	-0.127104	0.070321	-0.432488	-0.106143	0.057589	-0.420955	-0.191935	0.847234	-0.714045	-0.172804	0.788723	-0.717613	-0.110163	0.803807	-0.721120	-0.120309	0.863026	-0.718304	-0.240184	0.421974	-0.702285	-0.250181	0.382410	-0.699347	-0.190752	0.372522	-0.717803	-0.188537	0.416513	-0.717994	-0.300039	0.167567	-0.661744	-0.185292	0.079168	-0.730075	-0.142206	0.073170	-0.672793	-0.124232	0.061365	-0.679878	
505	2.5250	-0.253064	1.475486	-0.542738	-0.186373	1.483393	-0.712302	-0.193197	1.463617	-0.379949	-0.121195	1.437836	-0.541960	-0.089714	1.044309	-0.432668	-0.093830	1.033446	-0.656479	-0.150288	1.095119	-0.403780	-0.145536	1.102312	-0.680802	-0.244353	1.077340	-0.489864	-0.246036	1.076788	-0.590733	-0.247130	1.086069	-0.538451	-0.172595	0.841162	-0.361421	-0.148721	0.786680	-0.359956	-0.088354	0.810938	-0.365422	-0.106208	0.869405	-0.368254	-0.195674	0.441574	-0.356369	-0.210367	0.401144	-0.360954	-0.151393	0.387657	-0.367500	-0.141440	0.426795	-0.367154	-0.277582	0.173611	-0.414965	-0.157368	0.068750	-0.364360	-0.129206	0.068344	-0.433550	-0.108283	0.055403	-0.422173	-0.190299	0.845311	-0.714934	-0.170962	0.786856	-0.718200	-0.108306	0.802078	-0.720666	-0.118634	0.861289	-0.718045	-0.239676	0.420104	-0.702419	-0.249761	0.380566	-0.699456	-0.190361	0.370533	-0.717923	-0.188057	0.414523	-0.718158	-0.300351	0.166003	-0.662246	-0.185389	0.076991	-0.729667	-0.142331	0.071323	-0.672323	-0.124333	0.059203	-0.679207	
506	2.5300	-0.252981	1.473160	-0.542805	-0.186041	1.480744	-0.712482	-0.193040	1.460896	-0.379860	-0.121031	1.435216	-0.541998	-0.090048	1.042009	-0.432663	-0.093958	1.031267	-0.656436	-0.150644	1.092704	-0.403821	-0.145710	1.099876	-0.680915	-0.244722	1.074715	-0.489978	-0.246358	1.074216	-0.590790	-0.247464	1.083506	-0.538560	-0.171651	0.838685	-0.361348	-0.147639	0.784248	-0.359991	-0.087371	0.808632	-0.365801	-0.105358	0.867064	-0.368528	-0.195116	0.439546	-0.356559	-0.210086	0.399244	-0.361203	-0.151220	0.385354	-0.367881	-0.140993	0.424423	-0.367481	-0.279107	0.172289	-0.414988	-0.159287	0.066573	-0.365381	-0.131511	0.066068	-0.434630	-0.110610	0.052878	-0.423436	-0.188658	0.843207	-0.715798	-0.169147	0.784798	-0.718754	-0.106484	0.800113	-0.720201	-0.116952	0.859319	-0.717771	-0.239055	0.417975	-0.702723	-0.249235	0.378460	-0.699734	-0.189810	0.368286	-0.718024	-0.187416	0.412259	-0.718316	-0.300661	0.164264	-0.662796	-0.185555	0.074420	-0.729124	-0.142563	0.069143	-0.671702	-0.124558	0.056674	-0.678367	
507	2.5350	-0.252888	1.470598	-0.542864	-0.185722	1.477873	-0.712646	-0.192845	1.457954	-0.379787	-0.120900	1.432359	-0.542043	-0.090397	1.039467	-0.432654	-0.094105	1.028867	-0.656386	-0.151043	1.090039	-0.403875	-0.145911	1.097228	-0.681027	-0.245109	1.071841	-0.490105	-0.246697	1.071401	-0.590827	-0.247828	1.080694	-0.538673	-0.170671	0.835959	-0.361269	-0.146525	0.781558	-0.360036	-0.086346	0.806091	-0.366185	-0.104481	0.864481	-0.368814	-0.194504	0.437294	-0.356702	-0.209766	0.397102	-0.361410	-0.151019	0.382811	-0.368259	-0.140507	0.421813	-0.367772	-0.280656	0.170818	-0.415026	-0.161342	0.064149	-0.366412	-0.134018	0.063499	-0.435703	-0.113115	0.050012	-0.424716	-0.187019	0.840907	-0.716587	-0.167393	0.782530	-0.719265	-0.104731	0.797902	-0.719734	-0.115287	0.857099	-0.717478	-0.238313	0.415589	-0.703216	-0.248604	0.376108	-0.700194	-0.189100	0.365761	-0.718117	-0.186602	0.409722	-0.718485	-0.300999	0.162324	-0.663391	-0.185774	0.071516	-0.728464	-0.142897	0.066669	-0.670929	-0.124902	0.053827	-0.677353	
508	2.5400	-0.252786	1.467796	-0.542915	-0.185416	1.474786	-0.712798	-0.192628	1.454801	-0.379722	-0.120813	1.429267	-0.542097	-0.090761	1.036690	-0.432643	-0.094271	1.026241	-0.656332	-0.151497	1.087129	-0.403938	-0.146140	1.094378	-0.681140	-0.245516	1.068716	-0.490243	-0.247048	1.068342	-0.590848	-0.248220	1.077637	-0.538793	-0.169681	0.832997	-0.361191	-0.145394	0.778627	-0.360087	-0.085309	0.803322	-0.366576	-0.103604	0.861662	-0.369119	-0.193839	0.434800	-0.356817	-0.209402	0.394715	-0.361566	-0.150785	0.380012	-0.368639	-0.139986	0.418940	-0.368099	-0.282229	0.169189	-0.415067	-0.163527	0.061494	-0.367436	-0.136674	0.060626	-0.436784	-0.115793	0.046821	-0.426022	-0.185419	0.838388	-0.717303	-0.165727	0.780038	-0.719730	-0.103075	0.795423	-0.719273	-0.113669	0.854621	-0.717163	-0.237436	0.412964	-0.703890	-0.247864	0.373510	-0.700851	-0.188229	0.362972	-0.718216	-0.185612	0.406906	-0.718673	-0.301384	0.160174	-0.664038	-0.186032	0.068342	-0.727708	-0.143331	0.063920	-0.670004	-0.125354	0.050690	-0.676173	
509	2.5450	-0.252682	1.464753	-0.542956	-0.185126	1.471488	-0.712945	-0.192383	1.451434	-0.379667	-0.120774	1.425941	-0.542161	-0.091133	1.033672	-0.432633	-0.094454	1.023385	-0.656284	-0.151996	1.083968	-0.404016	-0.146401	1.091323	-0.681254	-0.245939	1.065334	-0.490386	-0.247410	1.065033	-0.590847	-0.248637	1.074317	-0.538929	-0.168702	0.829776	-0.361123	-0.144262	0.775451	-0.360144	-0.084278	0.800317	-0.366987	-0.102755	0.858602	-0.369442	-0.193116	0.432071	-0.356894	-0.208999	0.392084	-0.361662	-0.150528	0.376962	-0.369011	-0.139427	0.415810	-0.368463	-0.283823	0.167385	-0.415106	-0.165831	0.058615	-0.368427	-0.139462	0.057490	-0.437882	-0.118634	0.043462	-0.427347	-0.183903	0.835661	-0.717997	-0.164165	0.777306	-0.720151	-0.101529	0.792677	-0.718816	-0.112144	0.851893	-0.716879	-0.236416	0.410079	-0.704712	-0.247017	0.370683	-0.701688	-0.187219	0.359918	-0.718338	-0.184452	0.403817	-0.718891	-0.301825	0.157809	-0.664741	-0.186309	0.064958	-0.726891	-0.143871	0.060909	-0.668925	-0.125909	0.047289	-0.674809	
510	2.5500	-0.252579	1.461473	-0.542983	-0.184857	1.467980	-0.713087	-0.192117	1.447856	-0.379616	-0.120783	1.422385	-0.542235	-0.091513	1.030413	-0.432627	-0.094655	1.020295	-0.656247	-0.152540	1.080548	-0.404105	-0.146693	1.088055	-0.681366	-0.246378	1.061699	-0.490531	-0.247782	1.061476	-0.590879	-0.249065	1.070728	-0.539069	-0.167756	0.826290	-0.361062	-0.143144	0.772025	-0.360219	-0.083274	0.797080	-0.367419	-0.101951	0.855306	-0.369783	-0.192341	0.429091	-0.356929	-0.208559	0.389232	-0.361705	-0.150248	0.373656	-0.369369	-0.138838	0.412419	-0.368818	-0.285446	0.165372	-0.415151	-0.168239	0.055528	-0.369356	-0.142354	0.054188	-0.438979	-0.121575	0.040109	-0.428627	-0.182491	0.832698	-0.718669	-0.162713	0.774315	-0.720525	-0.100099	0.789661	-0.718361	-0.110729	0.848908	-0.716626	-0.235263	0.406958	-0.705681	-0.246070	0.367639	-0.702683	-0.186095	0.356590	-0.718480	-0.183135	0.400458	-0.719134	-0.302322	0.155225	-0.665512	-0.186588	0.061412	-0.726038	-0.144535	0.057687	-0.667713	-0.126585	0.043786	-0.673290	
